<svg xmlns="http://www.w3.org/2000/svg" viewBox="0 0 800 450" width="800" height="450">
  <defs>
    <linearGradient id="bg" x1="0" y1="0" x2="1" y2="1">
      <stop offset="0%" stop-color="#1f2121"/>
      <stop offset="100%" stop-color="#2a2c2c"/>
    </linearGradient>
  </defs>
  <rect width="800" height="450" fill="url(#bg)"/>
  <!-- Newspaper icon -->
  <rect x="280" y="120" width="240" height="210" rx="8" fill="none" stroke="#bf9045" stroke-width="3"/>
  <rect x="300" y="145" width="200" height="20" rx="3" fill="#bf9045" opacity="0.8"/>
  <rect x="300" y="180" width="90" height="70" rx="3" fill="#bf9045" opacity="0.3"/>
  <rect x="405" y="180" width="95" height="8" rx="2" fill="#626976"/>
  <rect x="405" y="196" width="80" height="8" rx="2" fill="#626976"/>
  <rect x="405" y="212" width="95" height="8" rx="2" fill="#626976"/>
  <rect x="405" y="228" width="60" height="8" rx="2" fill="#626976"/>
  <rect x="300" y="265" width="200" height="8" rx="2" fill="#626976"/>
  <rect x="300" y="281" width="180" height="8" rx="2" fill="#626976"/>
  <rect x="300" y="297" width="200" height="8" rx="2" fill="#626976"/>
  <!-- Decorative dots -->
  <circle cx="160" cy="100" r="3" fill="#bf9045" opacity="0.4"/>
  <circle cx="640" cy="350" r="3" fill="#bf9045" opacity="0.4"/>
  <circle cx="120" cy="320" r="2" fill="#bf9045" opacity="0.3"/>
  <circle cx="680" cy="130" r="2" fill="#bf9045" opacity="0.3"/>
  <text x="400" y="400" text-anchor="middle" font-family="sans-serif" font-size="16" fill="#626976">News Section</text>
</svg>
