<svg xmlns="http://www.w3.org/2000/svg" viewBox="0 0 800 450" width="800" height="450">
  <defs>
    <linearGradient id="bg" x1="0" y1="0" x2="1" y2="1">
      <stop offset="0%" stop-color="#1f2121"/>
      <stop offset="100%" stop-color="#2a2c2c"/>
    </linearGradient>
  </defs>
  <rect width="800" height="450" fill="url(#bg)"/>
  <!-- Search magnifying glass (large) -->
  <circle cx="350" cy="200" r="65" fill="none" stroke="#bf9045" stroke-width="3"/>
  <path d="M398 248 l50 50" stroke="#bf9045" stroke-width="6" stroke-linecap="round"/>
  <!-- Filter sliders inside glass -->
  <rect x="305" y="175" width="90" height="6" rx="3" fill="#626976" opacity="0.6"/>
  <circle cx="360" cy="178" r="8" fill="#bf9045" opacity="0.8"/>
  <rect x="305" y="200" width="90" height="6" rx="3" fill="#626976" opacity="0.6"/>
  <circle cx="330" cy="203" r="8" fill="#bf9045" opacity="0.8"/>
  <rect x="305" y="225" width="90" height="6" rx="3" fill="#626976" opacity="0.6"/>
  <circle cx="375" cy="228" r="8" fill="#bf9045" opacity="0.8"/>
  <!-- Version badges -->
  <rect x="500" y="140" width="120" height="30" rx="15" fill="#bf9045" opacity="0.2" stroke="#bf9045" stroke-width="1.5"/>
  <text x="560" y="160" text-anchor="middle" font-family="monospace" font-size="12" fill="#bf9045">MC 1.20.1</text>
  <rect x="500" y="185" width="120" height="30" rx="15" fill="#bf9045" opacity="0.2" stroke="#bf9045" stroke-width="1.5"/>
  <text x="560" y="205" text-anchor="middle" font-family="monospace" font-size="12" fill="#bf9045">Create 6.0</text>
  <rect x="500" y="230" width="120" height="30" rx="15" fill="#bf9045" opacity="0.2" stroke="#bf9045" stroke-width="1.5"/>
  <text x="560" y="250" text-anchor="middle" font-family="monospace" font-size="12" fill="#bf9045">MC 1.21.1</text>
  <!-- Arrow connecting -->
  <path d="M480 200 l10 0" stroke="#bf9045" stroke-width="1.5" stroke-linecap="round" opacity="0.5"/>
  <text x="400" y="380" text-anchor="middle" font-family="sans-serif" font-size="16" fill="#626976">Search Improvements</text>
</svg>
