<svg viewBox="0 0 720 405" xmlns="http://www.w3.org/2000/svg">
  <defs>
    <linearGradient id="hero-bg" x1="0" y1="0" x2="0" y2="1">
      <stop offset="0%" stop-color="#26282a"/>
      <stop offset="100%" stop-color="#1c1e1f"/>
    </linearGradient>
    <linearGradient id="shield-fill" x1="0" y1="0" x2="0" y2="1">
      <stop offset="0%" stop-color="#d4a54e"/>
      <stop offset="100%" stop-color="#9e7735"/>
    </linearGradient>
  </defs>
  <rect width="720" height="405" fill="url(#hero-bg)"/>
  <circle cx="360" cy="200" r="170" fill="#bf9045" opacity="0.06"/>
  <circle cx="360" cy="200" r="120" fill="#bf9045" opacity="0.08"/>
  <g transform="translate(360 200)">
    <path d="M 0 -110 L 82 -82 L 82 12 C 82 58 44 92 0 112 C -44 92 -82 58 -82 12 L -82 -82 Z" fill="url(#shield-fill)"/>
    <path d="M 0 -98 L 70 -73 L 70 10 C 70 50 36 80 0 98 C -36 80 -70 50 -70 10 L -70 -73 Z" fill="none" stroke="#7d5f24" stroke-width="1.5" opacity="0.6"/>
    <path d="M -28 4 L -8 24 L 32 -20" fill="none" stroke="#1f2121" stroke-width="10" stroke-linecap="round" stroke-linejoin="round"/>
  </g>
</svg>
