<?xml version="1.0" encoding="UTF-8"?>
<svg xmlns="http://www.w3.org/2000/svg" viewBox="0 0 1280 720" width="1280" height="720" preserveAspectRatio="xMidYMid slice">
  <defs>
    <linearGradient id="sky-copper-120" x1="0" y1="0" x2="0" y2="1">
      <stop offset="0" stop-color="#e89968" stop-opacity="0.75"></stop>
      <stop offset="1" stop-color="#3a1f0f" stop-opacity="0.95"></stop>
    </linearGradient>
  </defs>
  
  <rect width="1280" height="720" fill="url(#sky-copper-120)"></rect>
  
  <rect x="108" y="200" width="249" height="14" fill="#e89968" opacity="0.25"></rect><rect x="374" y="196" width="238" height="14" fill="#e89968" opacity="0.25"></rect><rect x="1134" y="166" width="176" height="14" fill="#e89968" opacity="0.25"></rect><rect x="873" y="187" width="99" height="14" fill="#e89968" opacity="0.25"></rect><rect x="104" y="180" width="160" height="14" fill="#e89968" opacity="0.25"></rect>
  
  <rect x="1120" y="0" width="40" height="40" fill="#c87333" stroke="#3a1f0f" stroke-width="0.6" opacity="0.71"></rect><rect x="760" y="200" width="40" height="40" fill="#653010" stroke="#3a1f0f" stroke-width="0.6" opacity="0.76"></rect><rect x="1160" y="120" width="40" height="40" fill="#3a1f0f" stroke="#3a1f0f" stroke-width="0.6" opacity="0.76"></rect><rect x="480" y="80" width="40" height="40" fill="#c87333" stroke="#3a1f0f" stroke-width="0.6" opacity="0.81"></rect><rect x="560" y="200" width="40" height="40" fill="#3a1f0f" stroke="#3a1f0f" stroke-width="0.6" opacity="0.86"></rect><rect x="1120" y="120" width="40" height="40" fill="#c87333" stroke="#3a1f0f" stroke-width="0.6" opacity="0.73"></rect><rect x="160" y="0" width="40" height="40" fill="#8b4513" stroke="#3a1f0f" stroke-width="0.6" opacity="0.74"></rect><rect x="720" y="0" width="40" height="40" fill="#653010" stroke="#3a1f0f" stroke-width="0.6" opacity="0.73"></rect><rect x="600" y="80" width="40" height="40" fill="#653010" stroke="#3a1f0f" stroke-width="0.6" opacity="0.83"></rect><rect x="0" y="40" width="40" height="40" fill="#3a1f0f" stroke="#3a1f0f" stroke-width="0.6" opacity="0.81"></rect><rect x="840" y="80" width="40" height="40" fill="#653010" stroke="#3a1f0f" stroke-width="0.6" opacity="0.87"></rect><rect x="40" y="120" width="40" height="40" fill="#c87333" stroke="#3a1f0f" stroke-width="0.6" opacity="0.72"></rect>
  
  <line x1="0" y1="440" x2="1280" y2="440" stroke="#e89968" stroke-width="1" opacity="0.14"></line><line x1="0" y1="434" x2="1280" y2="434" stroke="#e89968" stroke-width="1" opacity="0.10"></line><line x1="0" y1="428" x2="1280" y2="428" stroke="#e89968" stroke-width="1" opacity="0.06"></line>
  
  <rect x="0" y="446" width="1280" height="274" fill="#3a1f0f"></rect>
  
  <rect x="120" y="406" width="40" height="40" fill="#3a1f0f" stroke="#3a1f0f" stroke-width="0.6" opacity="0.99"></rect><rect x="160" y="406" width="40" height="40" fill="#653010" stroke="#3a1f0f" stroke-width="0.6" opacity="0.96"></rect><rect x="200" y="406" width="40" height="40" fill="#653010" stroke="#3a1f0f" stroke-width="0.6" opacity="0.99"></rect><rect x="240" y="406" width="40" height="40" fill="#653010" stroke="#3a1f0f" stroke-width="0.6" opacity="0.88"></rect><rect x="280" y="406" width="40" height="40" fill="#8b4513" stroke="#3a1f0f" stroke-width="0.6" opacity="1.00"></rect><rect x="320" y="406" width="40" height="40" fill="#e89968" stroke="#3a1f0f" stroke-width="0.6" opacity="0.96"></rect><rect x="520" y="406" width="40" height="40" fill="#653010" stroke="#3a1f0f" stroke-width="0.6" opacity="0.91"></rect><rect x="560" y="406" width="40" height="40" fill="#e89968" stroke="#3a1f0f" stroke-width="0.6" opacity="0.94"></rect><rect x="600" y="406" width="40" height="40" fill="#e89968" stroke="#3a1f0f" stroke-width="0.6" opacity="0.98"></rect><rect x="680" y="406" width="40" height="40" fill="#8b4513" stroke="#3a1f0f" stroke-width="0.6" opacity="0.92"></rect><rect x="800" y="406" width="40" height="40" fill="#653010" stroke="#3a1f0f" stroke-width="0.6" opacity="0.90"></rect><rect x="960" y="406" width="40" height="40" fill="#3a1f0f" stroke="#3a1f0f" stroke-width="0.6" opacity="0.87"></rect><rect x="1000" y="406" width="40" height="40" fill="#e89968" stroke="#3a1f0f" stroke-width="0.6" opacity="0.89"></rect><rect x="1120" y="406" width="40" height="40" fill="#e89968" stroke="#3a1f0f" stroke-width="0.6" opacity="0.97"></rect><rect x="1160" y="406" width="40" height="40" fill="#653010" stroke="#3a1f0f" stroke-width="0.6" opacity="0.90"></rect><rect x="0" y="446" width="40" height="40" fill="#3a1f0f" stroke="#3a1f0f" stroke-width="0.6" opacity="1.00"></rect><rect x="120" y="446" width="40" height="40" fill="#e89968" stroke="#3a1f0f" stroke-width="0.6" opacity="0.85"></rect><rect x="160" y="446" width="40" height="40" fill="#3a1f0f" stroke="#3a1f0f" stroke-width="0.6" opacity="0.87"></rect><rect x="200" y="446" width="40" height="40" fill="#c87333" stroke="#3a1f0f" stroke-width="0.6" opacity="1.00"></rect><rect x="240" y="446" width="40" height="40" fill="#653010" stroke="#3a1f0f" stroke-width="0.6" opacity="0.97"></rect><rect x="520" y="446" width="40" height="40" fill="#c87333" stroke="#3a1f0f" stroke-width="0.6" opacity="0.99"></rect><rect x="560" y="446" width="40" height="40" fill="#3a1f0f" stroke="#3a1f0f" stroke-width="0.6" opacity="0.98"></rect><rect x="640" y="446" width="40" height="40" fill="#e89968" stroke="#3a1f0f" stroke-width="0.6" opacity="0.93"></rect><rect x="680" y="446" width="40" height="40" fill="#e89968" stroke="#3a1f0f" stroke-width="0.6" opacity="0.90"></rect><rect x="760" y="446" width="40" height="40" fill="#8b4513" stroke="#3a1f0f" stroke-width="0.6" opacity="0.89"></rect><rect x="840" y="446" width="40" height="40" fill="#c87333" stroke="#3a1f0f" stroke-width="0.6" opacity="0.90"></rect><rect x="960" y="446" width="40" height="40" fill="#8b4513" stroke="#3a1f0f" stroke-width="0.6" opacity="0.99"></rect><rect x="1040" y="446" width="40" height="40" fill="#8b4513" stroke="#3a1f0f" stroke-width="0.6" opacity="0.98"></rect><rect x="1120" y="446" width="40" height="40" fill="#653010" stroke="#3a1f0f" stroke-width="0.6" opacity="0.97"></rect><rect x="1160" y="446" width="40" height="40" fill="#e89968" stroke="#3a1f0f" stroke-width="0.6" opacity="0.91"></rect><rect x="1240" y="446" width="40" height="40" fill="#c87333" stroke="#3a1f0f" stroke-width="0.6" opacity="0.87"></rect><rect x="0" y="486" width="40" height="40" fill="#c87333" stroke="#3a1f0f" stroke-width="0.6" opacity="0.90"></rect><rect x="80" y="486" width="40" height="40" fill="#c87333" stroke="#3a1f0f" stroke-width="0.6" opacity="0.92"></rect><rect x="160" y="486" width="40" height="40" fill="#3a1f0f" stroke="#3a1f0f" stroke-width="0.6" opacity="0.95"></rect><rect x="200" y="486" width="40" height="40" fill="#c87333" stroke="#3a1f0f" stroke-width="0.6" opacity="0.90"></rect><rect x="280" y="486" width="40" height="40" fill="#e89968" stroke="#3a1f0f" stroke-width="0.6" opacity="0.98"></rect><rect x="320" y="486" width="40" height="40" fill="#e89968" stroke="#3a1f0f" stroke-width="0.6" opacity="0.94"></rect><rect x="360" y="486" width="40" height="40" fill="#653010" stroke="#3a1f0f" stroke-width="0.6" opacity="0.93"></rect><rect x="480" y="486" width="40" height="40" fill="#e89968" stroke="#3a1f0f" stroke-width="0.6" opacity="0.90"></rect><rect x="520" y="486" width="40" height="40" fill="#653010" stroke="#3a1f0f" stroke-width="0.6" opacity="0.96"></rect><rect x="560" y="486" width="40" height="40" fill="#3a1f0f" stroke="#3a1f0f" stroke-width="0.6" opacity="0.88"></rect><rect x="600" y="486" width="40" height="40" fill="#653010" stroke="#3a1f0f" stroke-width="0.6" opacity="0.97"></rect><rect x="720" y="486" width="40" height="40" fill="#c87333" stroke="#3a1f0f" stroke-width="0.6" opacity="0.86"></rect><rect x="760" y="486" width="40" height="40" fill="#8b4513" stroke="#3a1f0f" stroke-width="0.6" opacity="0.87"></rect><rect x="840" y="486" width="40" height="40" fill="#c87333" stroke="#3a1f0f" stroke-width="0.6" opacity="0.87"></rect><rect x="920" y="486" width="40" height="40" fill="#3a1f0f" stroke="#3a1f0f" stroke-width="0.6" opacity="0.98"></rect><rect x="960" y="486" width="40" height="40" fill="#e89968" stroke="#3a1f0f" stroke-width="0.6" opacity="0.98"></rect><rect x="1160" y="486" width="40" height="40" fill="#653010" stroke="#3a1f0f" stroke-width="0.6" opacity="0.88"></rect><rect x="0" y="526" width="40" height="40" fill="#653010" stroke="#3a1f0f" stroke-width="0.6" opacity="0.88"></rect><rect x="80" y="526" width="40" height="40" fill="#e89968" stroke="#3a1f0f" stroke-width="0.6" opacity="0.91"></rect><rect x="120" y="526" width="40" height="40" fill="#8b4513" stroke="#3a1f0f" stroke-width="0.6" opacity="0.92"></rect><rect x="160" y="526" width="40" height="40" fill="#e89968" stroke="#3a1f0f" stroke-width="0.6" opacity="0.92"></rect><rect x="200" y="526" width="40" height="40" fill="#3a1f0f" stroke="#3a1f0f" stroke-width="0.6" opacity="0.90"></rect><rect x="240" y="526" width="40" height="40" fill="#c87333" stroke="#3a1f0f" stroke-width="0.6" opacity="0.91"></rect><rect x="280" y="526" width="40" height="40" fill="#3a1f0f" stroke="#3a1f0f" stroke-width="0.6" opacity="0.93"></rect><rect x="400" y="526" width="40" height="40" fill="#653010" stroke="#3a1f0f" stroke-width="0.6" opacity="0.92"></rect><rect x="520" y="526" width="40" height="40" fill="#c87333" stroke="#3a1f0f" stroke-width="0.6" opacity="0.93"></rect><rect x="560" y="526" width="40" height="40" fill="#8b4513" stroke="#3a1f0f" stroke-width="0.6" opacity="0.89"></rect><rect x="720" y="526" width="40" height="40" fill="#c87333" stroke="#3a1f0f" stroke-width="0.6" opacity="0.93"></rect><rect x="760" y="526" width="40" height="40" fill="#e89968" stroke="#3a1f0f" stroke-width="0.6" opacity="0.96"></rect><rect x="960" y="526" width="40" height="40" fill="#8b4513" stroke="#3a1f0f" stroke-width="0.6" opacity="0.94"></rect><rect x="1000" y="526" width="40" height="40" fill="#e89968" stroke="#3a1f0f" stroke-width="0.6" opacity="0.87"></rect><rect x="1040" y="526" width="40" height="40" fill="#653010" stroke="#3a1f0f" stroke-width="0.6" opacity="0.95"></rect><rect x="1080" y="526" width="40" height="40" fill="#653010" stroke="#3a1f0f" stroke-width="0.6" opacity="0.92"></rect><rect x="1200" y="526" width="40" height="40" fill="#653010" stroke="#3a1f0f" stroke-width="0.6" opacity="0.90"></rect><rect x="0" y="566" width="40" height="40" fill="#e89968" stroke="#3a1f0f" stroke-width="0.6" opacity="0.88"></rect><rect x="80" y="566" width="40" height="40" fill="#653010" stroke="#3a1f0f" stroke-width="0.6" opacity="0.89"></rect><rect x="120" y="566" width="40" height="40" fill="#3a1f0f" stroke="#3a1f0f" stroke-width="0.6" opacity="0.97"></rect><rect x="200" y="566" width="40" height="40" fill="#c87333" stroke="#3a1f0f" stroke-width="0.6" opacity="0.87"></rect><rect x="240" y="566" width="40" height="40" fill="#8b4513" stroke="#3a1f0f" stroke-width="0.6" opacity="0.93"></rect><rect x="280" y="566" width="40" height="40" fill="#c87333" stroke="#3a1f0f" stroke-width="0.6" opacity="0.91"></rect><rect x="320" y="566" width="40" height="40" fill="#653010" stroke="#3a1f0f" stroke-width="0.6" opacity="0.94"></rect><rect x="400" y="566" width="40" height="40" fill="#3a1f0f" stroke="#3a1f0f" stroke-width="0.6" opacity="0.92"></rect><rect x="440" y="566" width="40" height="40" fill="#8b4513" stroke="#3a1f0f" stroke-width="0.6" opacity="0.99"></rect><rect x="480" y="566" width="40" height="40" fill="#8b4513" stroke="#3a1f0f" stroke-width="0.6" opacity="0.97"></rect><rect x="600" y="566" width="40" height="40" fill="#3a1f0f" stroke="#3a1f0f" stroke-width="0.6" opacity="0.94"></rect><rect x="640" y="566" width="40" height="40" fill="#653010" stroke="#3a1f0f" stroke-width="0.6" opacity="0.86"></rect><rect x="680" y="566" width="40" height="40" fill="#8b4513" stroke="#3a1f0f" stroke-width="0.6" opacity="0.94"></rect><rect x="760" y="566" width="40" height="40" fill="#3a1f0f" stroke="#3a1f0f" stroke-width="0.6" opacity="0.95"></rect><rect x="800" y="566" width="40" height="40" fill="#653010" stroke="#3a1f0f" stroke-width="0.6" opacity="0.89"></rect><rect x="840" y="566" width="40" height="40" fill="#8b4513" stroke="#3a1f0f" stroke-width="0.6" opacity="0.88"></rect><rect x="880" y="566" width="40" height="40" fill="#e89968" stroke="#3a1f0f" stroke-width="0.6" opacity="0.89"></rect><rect x="960" y="566" width="40" height="40" fill="#8b4513" stroke="#3a1f0f" stroke-width="0.6" opacity="0.94"></rect><rect x="1000" y="566" width="40" height="40" fill="#e89968" stroke="#3a1f0f" stroke-width="0.6" opacity="0.92"></rect><rect x="1040" y="566" width="40" height="40" fill="#3a1f0f" stroke="#3a1f0f" stroke-width="0.6" opacity="0.99"></rect><rect x="1120" y="566" width="40" height="40" fill="#c87333" stroke="#3a1f0f" stroke-width="0.6" opacity="0.97"></rect><rect x="1160" y="566" width="40" height="40" fill="#c87333" stroke="#3a1f0f" stroke-width="0.6" opacity="0.97"></rect><rect x="1200" y="566" width="40" height="40" fill="#c87333" stroke="#3a1f0f" stroke-width="0.6" opacity="0.96"></rect><rect x="1240" y="566" width="40" height="40" fill="#8b4513" stroke="#3a1f0f" stroke-width="0.6" opacity="0.98"></rect><rect x="0" y="606" width="40" height="40" fill="#c87333" stroke="#3a1f0f" stroke-width="0.6" opacity="0.87"></rect><rect x="40" y="606" width="40" height="40" fill="#653010" stroke="#3a1f0f" stroke-width="0.6" opacity="0.91"></rect><rect x="80" y="606" width="40" height="40" fill="#653010" stroke="#3a1f0f" stroke-width="0.6" opacity="0.92"></rect><rect x="120" y="606" width="40" height="40" fill="#e89968" stroke="#3a1f0f" stroke-width="0.6" opacity="0.90"></rect><rect x="200" y="606" width="40" height="40" fill="#653010" stroke="#3a1f0f" stroke-width="0.6" opacity="0.94"></rect><rect x="240" y="606" width="40" height="40" fill="#3a1f0f" stroke="#3a1f0f" stroke-width="0.6" opacity="0.85"></rect><rect x="360" y="606" width="40" height="40" fill="#e89968" stroke="#3a1f0f" stroke-width="0.6" opacity="0.91"></rect><rect x="400" y="606" width="40" height="40" fill="#c87333" stroke="#3a1f0f" stroke-width="0.6" opacity="0.88"></rect><rect x="440" y="606" width="40" height="40" fill="#e89968" stroke="#3a1f0f" stroke-width="0.6" opacity="0.95"></rect><rect x="480" y="606" width="40" height="40" fill="#8b4513" stroke="#3a1f0f" stroke-width="0.6" opacity="0.89"></rect><rect x="520" y="606" width="40" height="40" fill="#8b4513" stroke="#3a1f0f" stroke-width="0.6" opacity="0.92"></rect><rect x="600" y="606" width="40" height="40" fill="#8b4513" stroke="#3a1f0f" stroke-width="0.6" opacity="0.93"></rect><rect x="640" y="606" width="40" height="40" fill="#3a1f0f" stroke="#3a1f0f" stroke-width="0.6" opacity="0.90"></rect><rect x="680" y="606" width="40" height="40" fill="#8b4513" stroke="#3a1f0f" stroke-width="0.6" opacity="0.92"></rect><rect x="720" y="606" width="40" height="40" fill="#e89968" stroke="#3a1f0f" stroke-width="0.6" opacity="0.99"></rect><rect x="760" y="606" width="40" height="40" fill="#653010" stroke="#3a1f0f" stroke-width="0.6" opacity="0.95"></rect><rect x="800" y="606" width="40" height="40" fill="#c87333" stroke="#3a1f0f" stroke-width="0.6" opacity="0.85"></rect><rect x="840" y="606" width="40" height="40" fill="#c87333" stroke="#3a1f0f" stroke-width="0.6" opacity="0.96"></rect><rect x="880" y="606" width="40" height="40" fill="#8b4513" stroke="#3a1f0f" stroke-width="0.6" opacity="0.90"></rect><rect x="920" y="606" width="40" height="40" fill="#653010" stroke="#3a1f0f" stroke-width="0.6" opacity="0.90"></rect><rect x="960" y="606" width="40" height="40" fill="#3a1f0f" stroke="#3a1f0f" stroke-width="0.6" opacity="0.97"></rect><rect x="1000" y="606" width="40" height="40" fill="#c87333" stroke="#3a1f0f" stroke-width="0.6" opacity="0.91"></rect><rect x="1040" y="606" width="40" height="40" fill="#c87333" stroke="#3a1f0f" stroke-width="0.6" opacity="0.91"></rect><rect x="1120" y="606" width="40" height="40" fill="#3a1f0f" stroke="#3a1f0f" stroke-width="0.6" opacity="0.90"></rect><rect x="1160" y="606" width="40" height="40" fill="#c87333" stroke="#3a1f0f" stroke-width="0.6" opacity="0.89"></rect><rect x="1200" y="606" width="40" height="40" fill="#8b4513" stroke="#3a1f0f" stroke-width="0.6" opacity="0.91"></rect><rect x="1240" y="606" width="40" height="40" fill="#3a1f0f" stroke="#3a1f0f" stroke-width="0.6" opacity="0.99"></rect>
  
  
    <g transform="translate(640, 288)" font-family="-apple-system, BlinkMacSystemFont, &#39;Segoe UI&#39;, Inter, Roboto, sans-serif">
      <rect x="-220" y="-44" width="440" height="88" rx="10" fill="#3a1f0f" opacity="0.45"></rect>
      <text x="0" y="-2" text-anchor="middle" font-size="42" font-weight="700" letter-spacing="6" fill="#ffffff" opacity="0.92">PLACEHOLDER</text>
      <text x="0" y="28" text-anchor="middle" font-size="14" font-weight="500" letter-spacing="2" fill="#ffffff" opacity="0.6">IMAGE NOT AVAILABLE</text>
    </g>
</svg>