<?xml version="1.0" encoding="UTF-8"?>
<svg xmlns="http://www.w3.org/2000/svg" viewBox="0 0 1280 720" width="1280" height="720" preserveAspectRatio="xMidYMid slice">
  <defs>
    <linearGradient id="sky-brass-119" x1="0" y1="0" x2="0" y2="1">
      <stop offset="0" stop-color="#e3b97a" stop-opacity="0.75"></stop>
      <stop offset="1" stop-color="#3a2c12" stop-opacity="0.95"></stop>
    </linearGradient>
  </defs>
  
  <rect width="1280" height="720" fill="url(#sky-brass-119)"></rect>
  
  <rect x="724" y="148" width="246" height="14" fill="#e3b97a" opacity="0.25"></rect><rect x="1060" y="106" width="181" height="14" fill="#e3b97a" opacity="0.25"></rect><rect x="480" y="95" width="82" height="14" fill="#e3b97a" opacity="0.25"></rect><rect x="541" y="133" width="179" height="14" fill="#e3b97a" opacity="0.25"></rect><rect x="1041" y="102" width="112" height="14" fill="#e3b97a" opacity="0.25"></rect>
  
  <rect x="800" y="0" width="40" height="40" fill="#e3b97a" stroke="#3a2c12" stroke-width="0.6" opacity="0.88"></rect><rect x="680" y="80" width="40" height="40" fill="#5a3f1c" stroke="#3a2c12" stroke-width="0.6" opacity="0.88"></rect><rect x="280" y="80" width="40" height="40" fill="#c79657" stroke="#3a2c12" stroke-width="0.6" opacity="0.74"></rect><rect x="40" y="40" width="40" height="40" fill="#e3b97a" stroke="#3a2c12" stroke-width="0.6" opacity="0.80"></rect><rect x="160" y="40" width="40" height="40" fill="#3a2c12" stroke="#3a2c12" stroke-width="0.6" opacity="0.74"></rect><rect x="480" y="0" width="40" height="40" fill="#7a5727" stroke="#3a2c12" stroke-width="0.6" opacity="0.77"></rect><rect x="120" y="120" width="40" height="40" fill="#c79657" stroke="#3a2c12" stroke-width="0.6" opacity="0.72"></rect><rect x="240" y="280" width="40" height="40" fill="#c79657" stroke="#3a2c12" stroke-width="0.6" opacity="0.88"></rect><rect x="680" y="160" width="40" height="40" fill="#5a3f1c" stroke="#3a2c12" stroke-width="0.6" opacity="0.74"></rect><rect x="720" y="320" width="40" height="40" fill="#c79657" stroke="#3a2c12" stroke-width="0.6" opacity="0.78"></rect><rect x="560" y="320" width="40" height="40" fill="#5a3f1c" stroke="#3a2c12" stroke-width="0.6" opacity="0.79"></rect><rect x="920" y="320" width="40" height="40" fill="#e3b97a" stroke="#3a2c12" stroke-width="0.6" opacity="0.82"></rect>
  
  <line x1="0" y1="440" x2="1280" y2="440" stroke="#e3b97a" stroke-width="1" opacity="0.14"></line><line x1="0" y1="434" x2="1280" y2="434" stroke="#e3b97a" stroke-width="1" opacity="0.10"></line><line x1="0" y1="428" x2="1280" y2="428" stroke="#e3b97a" stroke-width="1" opacity="0.06"></line>
  
  <rect x="0" y="446" width="1280" height="274" fill="#3a2c12"></rect>
  
  <rect x="40" y="406" width="40" height="40" fill="#e3b97a" stroke="#3a2c12" stroke-width="0.6" opacity="0.86"></rect><rect x="120" y="406" width="40" height="40" fill="#e3b97a" stroke="#3a2c12" stroke-width="0.6" opacity="0.90"></rect><rect x="200" y="406" width="40" height="40" fill="#e3b97a" stroke="#3a2c12" stroke-width="0.6" opacity="0.90"></rect><rect x="280" y="406" width="40" height="40" fill="#5a3f1c" stroke="#3a2c12" stroke-width="0.6" opacity="0.86"></rect><rect x="320" y="406" width="40" height="40" fill="#5a3f1c" stroke="#3a2c12" stroke-width="0.6" opacity="0.97"></rect><rect x="360" y="406" width="40" height="40" fill="#e3b97a" stroke="#3a2c12" stroke-width="0.6" opacity="0.88"></rect><rect x="400" y="406" width="40" height="40" fill="#e3b97a" stroke="#3a2c12" stroke-width="0.6" opacity="0.88"></rect><rect x="480" y="406" width="40" height="40" fill="#3a2c12" stroke="#3a2c12" stroke-width="0.6" opacity="0.90"></rect><rect x="800" y="406" width="40" height="40" fill="#3a2c12" stroke="#3a2c12" stroke-width="0.6" opacity="0.96"></rect><rect x="840" y="406" width="40" height="40" fill="#5a3f1c" stroke="#3a2c12" stroke-width="0.6" opacity="0.89"></rect><rect x="880" y="406" width="40" height="40" fill="#3a2c12" stroke="#3a2c12" stroke-width="0.6" opacity="0.98"></rect><rect x="1200" y="406" width="40" height="40" fill="#3a2c12" stroke="#3a2c12" stroke-width="0.6" opacity="0.87"></rect><rect x="0" y="446" width="40" height="40" fill="#3a2c12" stroke="#3a2c12" stroke-width="0.6" opacity="0.86"></rect><rect x="40" y="446" width="40" height="40" fill="#3a2c12" stroke="#3a2c12" stroke-width="0.6" opacity="0.90"></rect><rect x="80" y="446" width="40" height="40" fill="#e3b97a" stroke="#3a2c12" stroke-width="0.6" opacity="0.99"></rect><rect x="120" y="446" width="40" height="40" fill="#5a3f1c" stroke="#3a2c12" stroke-width="0.6" opacity="0.94"></rect><rect x="160" y="446" width="40" height="40" fill="#7a5727" stroke="#3a2c12" stroke-width="0.6" opacity="0.87"></rect><rect x="200" y="446" width="40" height="40" fill="#3a2c12" stroke="#3a2c12" stroke-width="0.6" opacity="0.98"></rect><rect x="240" y="446" width="40" height="40" fill="#e3b97a" stroke="#3a2c12" stroke-width="0.6" opacity="0.96"></rect><rect x="280" y="446" width="40" height="40" fill="#7a5727" stroke="#3a2c12" stroke-width="0.6" opacity="0.91"></rect><rect x="560" y="446" width="40" height="40" fill="#c79657" stroke="#3a2c12" stroke-width="0.6" opacity="0.95"></rect><rect x="760" y="446" width="40" height="40" fill="#e3b97a" stroke="#3a2c12" stroke-width="0.6" opacity="0.99"></rect><rect x="840" y="446" width="40" height="40" fill="#3a2c12" stroke="#3a2c12" stroke-width="0.6" opacity="0.92"></rect><rect x="1040" y="446" width="40" height="40" fill="#3a2c12" stroke="#3a2c12" stroke-width="0.6" opacity="0.91"></rect><rect x="1120" y="446" width="40" height="40" fill="#c79657" stroke="#3a2c12" stroke-width="0.6" opacity="0.91"></rect><rect x="1160" y="446" width="40" height="40" fill="#3a2c12" stroke="#3a2c12" stroke-width="0.6" opacity="0.91"></rect><rect x="0" y="486" width="40" height="40" fill="#c79657" stroke="#3a2c12" stroke-width="0.6" opacity="0.94"></rect><rect x="40" y="486" width="40" height="40" fill="#5a3f1c" stroke="#3a2c12" stroke-width="0.6" opacity="0.89"></rect><rect x="120" y="486" width="40" height="40" fill="#c79657" stroke="#3a2c12" stroke-width="0.6" opacity="0.91"></rect><rect x="200" y="486" width="40" height="40" fill="#7a5727" stroke="#3a2c12" stroke-width="0.6" opacity="0.95"></rect><rect x="240" y="486" width="40" height="40" fill="#7a5727" stroke="#3a2c12" stroke-width="0.6" opacity="0.99"></rect><rect x="320" y="486" width="40" height="40" fill="#5a3f1c" stroke="#3a2c12" stroke-width="0.6" opacity="0.98"></rect><rect x="440" y="486" width="40" height="40" fill="#5a3f1c" stroke="#3a2c12" stroke-width="0.6" opacity="0.90"></rect><rect x="480" y="486" width="40" height="40" fill="#c79657" stroke="#3a2c12" stroke-width="0.6" opacity="0.86"></rect><rect x="520" y="486" width="40" height="40" fill="#5a3f1c" stroke="#3a2c12" stroke-width="0.6" opacity="0.92"></rect><rect x="560" y="486" width="40" height="40" fill="#3a2c12" stroke="#3a2c12" stroke-width="0.6" opacity="0.89"></rect><rect x="600" y="486" width="40" height="40" fill="#7a5727" stroke="#3a2c12" stroke-width="0.6" opacity="0.93"></rect><rect x="640" y="486" width="40" height="40" fill="#5a3f1c" stroke="#3a2c12" stroke-width="0.6" opacity="0.93"></rect><rect x="680" y="486" width="40" height="40" fill="#3a2c12" stroke="#3a2c12" stroke-width="0.6" opacity="0.93"></rect><rect x="720" y="486" width="40" height="40" fill="#e3b97a" stroke="#3a2c12" stroke-width="0.6" opacity="0.97"></rect><rect x="800" y="486" width="40" height="40" fill="#3a2c12" stroke="#3a2c12" stroke-width="0.6" opacity="0.86"></rect><rect x="880" y="486" width="40" height="40" fill="#3a2c12" stroke="#3a2c12" stroke-width="0.6" opacity="0.92"></rect><rect x="920" y="486" width="40" height="40" fill="#7a5727" stroke="#3a2c12" stroke-width="0.6" opacity="0.95"></rect><rect x="960" y="486" width="40" height="40" fill="#c79657" stroke="#3a2c12" stroke-width="0.6" opacity="0.88"></rect><rect x="1000" y="486" width="40" height="40" fill="#7a5727" stroke="#3a2c12" stroke-width="0.6" opacity="0.97"></rect><rect x="1040" y="486" width="40" height="40" fill="#7a5727" stroke="#3a2c12" stroke-width="0.6" opacity="0.91"></rect><rect x="1120" y="486" width="40" height="40" fill="#7a5727" stroke="#3a2c12" stroke-width="0.6" opacity="0.96"></rect><rect x="1160" y="486" width="40" height="40" fill="#3a2c12" stroke="#3a2c12" stroke-width="0.6" opacity="0.99"></rect><rect x="1200" y="486" width="40" height="40" fill="#5a3f1c" stroke="#3a2c12" stroke-width="0.6" opacity="0.97"></rect><rect x="0" y="526" width="40" height="40" fill="#e3b97a" stroke="#3a2c12" stroke-width="0.6" opacity="0.88"></rect><rect x="80" y="526" width="40" height="40" fill="#c79657" stroke="#3a2c12" stroke-width="0.6" opacity="0.95"></rect><rect x="160" y="526" width="40" height="40" fill="#e3b97a" stroke="#3a2c12" stroke-width="0.6" opacity="0.96"></rect><rect x="200" y="526" width="40" height="40" fill="#c79657" stroke="#3a2c12" stroke-width="0.6" opacity="0.96"></rect><rect x="280" y="526" width="40" height="40" fill="#5a3f1c" stroke="#3a2c12" stroke-width="0.6" opacity="0.86"></rect><rect x="320" y="526" width="40" height="40" fill="#c79657" stroke="#3a2c12" stroke-width="0.6" opacity="0.96"></rect><rect x="360" y="526" width="40" height="40" fill="#e3b97a" stroke="#3a2c12" stroke-width="0.6" opacity="0.89"></rect><rect x="400" y="526" width="40" height="40" fill="#5a3f1c" stroke="#3a2c12" stroke-width="0.6" opacity="0.95"></rect><rect x="440" y="526" width="40" height="40" fill="#7a5727" stroke="#3a2c12" stroke-width="0.6" opacity="0.91"></rect><rect x="480" y="526" width="40" height="40" fill="#c79657" stroke="#3a2c12" stroke-width="0.6" opacity="0.99"></rect><rect x="520" y="526" width="40" height="40" fill="#5a3f1c" stroke="#3a2c12" stroke-width="0.6" opacity="0.98"></rect><rect x="600" y="526" width="40" height="40" fill="#3a2c12" stroke="#3a2c12" stroke-width="0.6" opacity="0.99"></rect><rect x="800" y="526" width="40" height="40" fill="#c79657" stroke="#3a2c12" stroke-width="0.6" opacity="0.93"></rect><rect x="880" y="526" width="40" height="40" fill="#5a3f1c" stroke="#3a2c12" stroke-width="0.6" opacity="0.91"></rect><rect x="1120" y="526" width="40" height="40" fill="#e3b97a" stroke="#3a2c12" stroke-width="0.6" opacity="0.97"></rect><rect x="1160" y="526" width="40" height="40" fill="#7a5727" stroke="#3a2c12" stroke-width="0.6" opacity="0.95"></rect><rect x="1200" y="526" width="40" height="40" fill="#7a5727" stroke="#3a2c12" stroke-width="0.6" opacity="0.98"></rect><rect x="1240" y="526" width="40" height="40" fill="#c79657" stroke="#3a2c12" stroke-width="0.6" opacity="0.90"></rect><rect x="0" y="566" width="40" height="40" fill="#7a5727" stroke="#3a2c12" stroke-width="0.6" opacity="0.89"></rect><rect x="40" y="566" width="40" height="40" fill="#c79657" stroke="#3a2c12" stroke-width="0.6" opacity="0.92"></rect><rect x="80" y="566" width="40" height="40" fill="#5a3f1c" stroke="#3a2c12" stroke-width="0.6" opacity="0.93"></rect><rect x="120" y="566" width="40" height="40" fill="#5a3f1c" stroke="#3a2c12" stroke-width="0.6" opacity="0.99"></rect><rect x="160" y="566" width="40" height="40" fill="#e3b97a" stroke="#3a2c12" stroke-width="0.6" opacity="0.97"></rect><rect x="200" y="566" width="40" height="40" fill="#c79657" stroke="#3a2c12" stroke-width="0.6" opacity="0.86"></rect><rect x="240" y="566" width="40" height="40" fill="#3a2c12" stroke="#3a2c12" stroke-width="0.6" opacity="0.92"></rect><rect x="280" y="566" width="40" height="40" fill="#c79657" stroke="#3a2c12" stroke-width="0.6" opacity="0.88"></rect><rect x="360" y="566" width="40" height="40" fill="#3a2c12" stroke="#3a2c12" stroke-width="0.6" opacity="0.98"></rect><rect x="400" y="566" width="40" height="40" fill="#5a3f1c" stroke="#3a2c12" stroke-width="0.6" opacity="0.96"></rect><rect x="440" y="566" width="40" height="40" fill="#c79657" stroke="#3a2c12" stroke-width="0.6" opacity="0.85"></rect><rect x="520" y="566" width="40" height="40" fill="#c79657" stroke="#3a2c12" stroke-width="0.6" opacity="0.99"></rect><rect x="560" y="566" width="40" height="40" fill="#7a5727" stroke="#3a2c12" stroke-width="0.6" opacity="0.96"></rect><rect x="600" y="566" width="40" height="40" fill="#5a3f1c" stroke="#3a2c12" stroke-width="0.6" opacity="0.96"></rect><rect x="640" y="566" width="40" height="40" fill="#c79657" stroke="#3a2c12" stroke-width="0.6" opacity="0.88"></rect><rect x="680" y="566" width="40" height="40" fill="#3a2c12" stroke="#3a2c12" stroke-width="0.6" opacity="0.94"></rect><rect x="760" y="566" width="40" height="40" fill="#7a5727" stroke="#3a2c12" stroke-width="0.6" opacity="0.88"></rect><rect x="800" y="566" width="40" height="40" fill="#3a2c12" stroke="#3a2c12" stroke-width="0.6" opacity="0.92"></rect><rect x="840" y="566" width="40" height="40" fill="#7a5727" stroke="#3a2c12" stroke-width="0.6" opacity="1.00"></rect><rect x="880" y="566" width="40" height="40" fill="#c79657" stroke="#3a2c12" stroke-width="0.6" opacity="0.88"></rect><rect x="920" y="566" width="40" height="40" fill="#c79657" stroke="#3a2c12" stroke-width="0.6" opacity="0.88"></rect><rect x="960" y="566" width="40" height="40" fill="#c79657" stroke="#3a2c12" stroke-width="0.6" opacity="0.98"></rect><rect x="1000" y="566" width="40" height="40" fill="#3a2c12" stroke="#3a2c12" stroke-width="0.6" opacity="0.99"></rect><rect x="1080" y="566" width="40" height="40" fill="#3a2c12" stroke="#3a2c12" stroke-width="0.6" opacity="0.96"></rect><rect x="1120" y="566" width="40" height="40" fill="#7a5727" stroke="#3a2c12" stroke-width="0.6" opacity="0.90"></rect><rect x="1160" y="566" width="40" height="40" fill="#3a2c12" stroke="#3a2c12" stroke-width="0.6" opacity="0.90"></rect><rect x="1200" y="566" width="40" height="40" fill="#c79657" stroke="#3a2c12" stroke-width="0.6" opacity="0.92"></rect><rect x="0" y="606" width="40" height="40" fill="#3a2c12" stroke="#3a2c12" stroke-width="0.6" opacity="0.97"></rect><rect x="80" y="606" width="40" height="40" fill="#3a2c12" stroke="#3a2c12" stroke-width="0.6" opacity="0.86"></rect><rect x="120" y="606" width="40" height="40" fill="#7a5727" stroke="#3a2c12" stroke-width="0.6" opacity="0.85"></rect><rect x="160" y="606" width="40" height="40" fill="#5a3f1c" stroke="#3a2c12" stroke-width="0.6" opacity="0.87"></rect><rect x="200" y="606" width="40" height="40" fill="#7a5727" stroke="#3a2c12" stroke-width="0.6" opacity="0.88"></rect><rect x="240" y="606" width="40" height="40" fill="#c79657" stroke="#3a2c12" stroke-width="0.6" opacity="0.87"></rect><rect x="280" y="606" width="40" height="40" fill="#e3b97a" stroke="#3a2c12" stroke-width="0.6" opacity="0.98"></rect><rect x="400" y="606" width="40" height="40" fill="#3a2c12" stroke="#3a2c12" stroke-width="0.6" opacity="0.92"></rect><rect x="440" y="606" width="40" height="40" fill="#5a3f1c" stroke="#3a2c12" stroke-width="0.6" opacity="0.90"></rect><rect x="520" y="606" width="40" height="40" fill="#7a5727" stroke="#3a2c12" stroke-width="0.6" opacity="0.90"></rect><rect x="560" y="606" width="40" height="40" fill="#7a5727" stroke="#3a2c12" stroke-width="0.6" opacity="0.86"></rect><rect x="600" y="606" width="40" height="40" fill="#7a5727" stroke="#3a2c12" stroke-width="0.6" opacity="0.92"></rect><rect x="640" y="606" width="40" height="40" fill="#c79657" stroke="#3a2c12" stroke-width="0.6" opacity="0.95"></rect><rect x="720" y="606" width="40" height="40" fill="#5a3f1c" stroke="#3a2c12" stroke-width="0.6" opacity="0.98"></rect><rect x="760" y="606" width="40" height="40" fill="#3a2c12" stroke="#3a2c12" stroke-width="0.6" opacity="0.91"></rect><rect x="800" y="606" width="40" height="40" fill="#c79657" stroke="#3a2c12" stroke-width="0.6" opacity="0.87"></rect><rect x="840" y="606" width="40" height="40" fill="#c79657" stroke="#3a2c12" stroke-width="0.6" opacity="0.98"></rect><rect x="880" y="606" width="40" height="40" fill="#7a5727" stroke="#3a2c12" stroke-width="0.6" opacity="0.92"></rect><rect x="920" y="606" width="40" height="40" fill="#c79657" stroke="#3a2c12" stroke-width="0.6" opacity="0.89"></rect><rect x="960" y="606" width="40" height="40" fill="#5a3f1c" stroke="#3a2c12" stroke-width="0.6" opacity="0.93"></rect><rect x="1080" y="606" width="40" height="40" fill="#c79657" stroke="#3a2c12" stroke-width="0.6" opacity="0.96"></rect><rect x="1120" y="606" width="40" height="40" fill="#e3b97a" stroke="#3a2c12" stroke-width="0.6" opacity="0.95"></rect><rect x="1160" y="606" width="40" height="40" fill="#3a2c12" stroke="#3a2c12" stroke-width="0.6" opacity="0.90"></rect><rect x="1200" y="606" width="40" height="40" fill="#e3b97a" stroke="#3a2c12" stroke-width="0.6" opacity="0.93"></rect><rect x="1240" y="606" width="40" height="40" fill="#7a5727" stroke="#3a2c12" stroke-width="0.6" opacity="0.97"></rect>
  
  
    <g transform="translate(640, 288)" font-family="-apple-system, BlinkMacSystemFont, &#39;Segoe UI&#39;, Inter, Roboto, sans-serif">
      <rect x="-220" y="-44" width="440" height="88" rx="10" fill="#3a2c12" opacity="0.45"></rect>
      <text x="0" y="-2" text-anchor="middle" font-size="42" font-weight="700" letter-spacing="6" fill="#ffffff" opacity="0.92">PLACEHOLDER</text>
      <text x="0" y="28" text-anchor="middle" font-size="14" font-weight="500" letter-spacing="2" fill="#ffffff" opacity="0.6">IMAGE NOT AVAILABLE</text>
    </g>
</svg>